<svg width="38" height="38" viewBox="0 0 38 38" fill="none" xmlns="http://www.w3.org/2000/svg"><rect width="38" height="38" rx="19" fill="#262626"/><path d="M25.65 26.159c.24 0 .472.073.648.205a.715.715 0 01.3.506.669.669 0 01-.211.534c-.152.15-.37.248-.608.274l-.13.008H12.35c-.24 0-.473-.074-.649-.206a.715.715 0 01-.299-.506.67.67 0 01.211-.534c.152-.15.37-.248.608-.274l.13-.007H25.65zM19.009 11.4c.23 0 .45.067.624.188a.735.735 0 01.316.472l.009.103V22.54l3.759-3.024c.16-.13.374-.208.601-.222.227-.014.453.038.636.147l.108.073c.16.13.259.301.276.484a.66.66 0 01-.184.51l-.091.086-5.377 4.327-.09.064-.116.06-.045.021-.116.039-.152.03-.089.009-.076.002c-.064 0-.128-.006-.19-.016l-.102-.024a1.01 1.01 0 01-.327-.149l-5.437-4.362a.704.704 0 01-.28-.512.677.677 0 01.23-.527 1.04 1.04 0 01.615-.261c.239-.021.479.03.672.146l.106.074 3.768 3.02V12.164a.7.7 0 01.278-.54 1.08 1.08 0 01.672-.223h.002z" fill="#FF99C8"/></svg>