<svg width="40" height="40" viewBox="0 0 40 40" fill="none" xmlns="http://www.w3.org/2000/svg"><circle cx="20" cy="20" r="20" fill="#FF7096"/><path d="M19.832 9C13.849 9 9 13.776 9 19.668c0 5.891 4.85 10.667 10.832 10.667 5.982 0 10.831-4.776 10.831-10.668C30.663 13.777 25.813 9 19.832 9zm0 1.546c2.36 0 4.513.87 6.149 2.3-1.202 1.56-3.028 2.6-4.857 3.304a47.425 47.425 0 00-3.474-5.35 9.42 9.42 0 012.182-.254zm-3.94.864c1.207 1.78 2.377 3.429 3.445 5.296-2.702.69-5.756 1.104-8.577 1.11.594-2.841 2.533-5.2 5.131-6.406zm11.116 2.49a9.002 9.002 0 012.086 5.707 22.062 22.062 0 00-6.443-.31c-.244-.598-.54-1.167-.823-1.78 1.87-.744 3.87-2.015 5.18-3.617zm-6.919 4.217c.232.486.5 1.001.753 1.527-3.016 1.31-6.225 3.061-7.89 6.13a9.01 9.01 0 01-2.378-6.374c3.23-.015 6.401-.413 9.515-1.282zm4.895 2.488c1.348 0 2.69.17 3.994.506a9.035 9.035 0 01-1.342 3.471 9.187 9.187 0 01-2.637 2.656c-.497-2.227-.97-4.357-1.808-6.506a12.626 12.626 0 011.793-.128zm4.042.165zm-7.55.379c.854 2.172 1.524 4.578 1.974 6.919a9.355 9.355 0 01-3.618.722 9.313 9.313 0 01-5.684-1.92c1.678-2.68 4.276-4.708 7.328-5.72v-.001z" fill="#262626"/></svg>