<svg width="40" height="40" fill="none" xmlns="http://www.w3.org/2000/svg"><circle cx="20" cy="20" r="20" fill="#FF7096"/><path fill-rule="evenodd" clip-rule="evenodd" d="M19.506 8C13.149 8 8 13.399 8 20.065c0 5.338 3.293 9.848 7.867 11.446.575.106.791-.256.791-.573 0-.286-.014-1.236-.014-2.247-2.891.558-3.639-.739-3.87-1.417-.129-.347-.69-1.418-1.178-1.705-.403-.226-.979-.784-.015-.799.906-.015 1.553.875 1.77 1.237 1.035 1.825 2.689 1.312 3.35.995.1-.784.403-1.312.734-1.614-2.56-.301-5.235-1.342-5.235-5.957 0-1.312.445-2.398 1.179-3.242-.115-.302-.518-1.538.115-3.197 0 0 .964-.317 3.164 1.236.92-.271 1.898-.407 2.877-.407a10.2 10.2 0 012.876.408c2.2-1.569 3.164-1.237 3.164-1.237.633 1.659.23 2.895.115 3.197.733.845 1.18 1.915 1.18 3.242 0 4.63-2.69 5.656-5.25 5.957.417.377.776 1.101.776 2.232 0 1.614-.014 2.911-.014 3.318 0 .317.216.694.791.573 2.284-.808 4.269-2.348 5.675-4.401a12.488 12.488 0 002.163-7.045C31.011 13.399 25.863 8 19.506 8z" fill="#262626"/></svg>