<svg width="40" height="40" viewBox="0 0 40 40" fill="none" xmlns="http://www.w3.org/2000/svg"><circle cx="20" cy="20" r="20" fill="#FF7096"/><path d="M15.03 29h-3.733V16.982h3.732V29zm-1.87-13.657c-1.193 0-2.161-.988-2.161-2.182a2.161 2.161 0 114.322 0c0 1.194-.968 2.182-2.16 2.182zM28.996 29h-3.724v-5.85c0-1.394-.028-3.182-1.94-3.182-1.94 0-2.238 1.514-2.238 3.081V29h-3.727V16.982h3.579v1.64h.052c.498-.945 1.715-1.941 3.53-1.941 3.778 0 4.472 2.487 4.472 5.717V29h-.004z" fill="#262626"/></svg>