<svg width="40" height="40" fill="none" xmlns="http://www.w3.org/2000/svg"><circle cx="20" cy="20" r="20" fill="#FF7096"/><path d="M18.537 18.115l1.515-1.419a2.9 2.9 0 00.837-1.454 2.943 2.943 0 00-.102-1.683l-.647-1.765a2.743 2.743 0 00-1.337-1.51 2.653 2.653 0 00-1.987-.163c-2.423.757-4.285 3.057-3.711 5.79a22.323 22.323 0 002.464 6.453 22.858 22.858 0 004.275 5.43c2.026 1.884 4.92 1.413 6.782-.36.5-.476.802-1.128.847-1.823a2.778 2.778 0 00-.606-1.921l-1.186-1.473a2.82 2.82 0 00-1.377-.932 2.766 2.766 0 00-1.652.014l-1.96.63a9.032 9.032 0 01-1.322-1.763 9.137 9.137 0 01-.722-1.681 9.49 9.49 0 01-.111-.37z" fill="#262626"/></svg>