<svg width="40" height="40" viewBox="0 0 40 40" fill="none" xmlns="http://www.w3.org/2000/svg"><circle cx="20" cy="20" r="20" fill="#262626"/><path d="M18.119 18.968l1.674-1.568c.458-.43.78-.989.925-1.607a3.253 3.253 0 00-.112-1.86l-.716-1.95a3.032 3.032 0 00-1.478-1.669 2.932 2.932 0 00-2.195-.18c-2.677.836-4.735 3.378-4.102 6.398a24.675 24.675 0 002.724 7.132 25.26 25.26 0 004.724 6c2.239 2.082 5.437 1.562 7.495-.398a3.054 3.054 0 00.936-2.015 3.07 3.07 0 00-.67-2.123l-1.31-1.627a3.118 3.118 0 00-1.522-1.03 3.057 3.057 0 00-1.825.015l-2.166.697a9.986 9.986 0 01-1.461-1.948 10.106 10.106 0 01-.799-1.859 10.56 10.56 0 01-.122-.408z" fill="#FF7096"/></svg>