<svg width="54" height="54" fill="none" xmlns="http://www.w3.org/2000/svg"><circle cx="27" cy="27" r="27" fill="#FF7096"/><path d="M22.85 29.5c-1.645.121-3.138.837-3.986 3.39-.096.29-.328.467-.598.467-.456 0-1.864-1.297-2.266-1.61C16 35.607 17.556 39 21.25 39c3.112 0 5.25-2.052 5.25-5.634 0-.146-.026-.285-.04-.428L22.85 29.5zM34.78 15c-.621 0-1.204.315-1.648.771-8.384 8.56-9.257 8.76-9.257 11.28 0 .642.134 1.255.358 1.814l2.618 2.493c.296.084.6.142.918.142 2.548 0 4.024-2.131 8.66-12.022.304-.672.571-1.399.571-2.155C37 15.967 35.934 15 34.78 15z" fill="#262626"/></svg>