<svg width="40" height="40" viewBox="0 0 40 40" fill="none" xmlns="http://www.w3.org/2000/svg"><circle cx="20" cy="20" r="20" fill="#FF7096"/><path fill-rule="evenodd" clip-rule="evenodd" d="M10.562 20.28a9.719 9.719 0 114.216 8.012l-3.28 1.639a.648.648 0 01-.867-.868l1.639-3.279a9.676 9.676 0 01-1.708-5.503zm5.482-4.431l.267-.18a1.942 1.942 0 012.994 1.298l.182 1.085a1.943 1.943 0 01-.84 1.937l-.853.568a5.859 5.859 0 002.21 2.212l.57-.853a1.944 1.944 0 011.936-.84l1.085.182a1.944 1.944 0 011.297 2.995l-.18.268a.647.647 0 01-.543.296h-1.296a7.127 7.127 0 01-7.128-7.128v-1.296a.649.649 0 01.299-.544z" fill="#262626"/></svg>