<svg width="54" height="54" viewBox="0 0 54 54" fill="none" xmlns="http://www.w3.org/2000/svg"><circle cx="27" cy="27" r="27" fill="#FF7096"/><path d="M27.139 11c-6.298-.011-12.225 3.822-14.946 9.89l7.65.018v.858c-2.356-.29-2.149.965-1.815 2.297l5.021 12.918 3.69-8.88-1.694-4.162c-.615-1.115-.628-2.351-3.146-2.235l.036-.791 11.218.028v.887c-1.314.079-2.895-.34-2.057 2.422l4.538 12.234 2.48-7.142c.812-2.994.048-5.871-.917-8.692-.537-1.893-.287-3.474 2.12-4.1-3.674-3.85-8.007-5.544-12.179-5.55zm15.258 11.294l-7.274 19.46c2.009-1.786 4.068-2.436 6.589-7.377 1.676-4.109 1.504-7.916.684-12.083zm-30.974.316c-.71 5.744-.645 7.427 1.113 12.118 2.29 4.493 4.067 5.44 6.588 7.202l-7.7-19.32zm16 7.289l-5.39 13.348c3.783 1.109 7.168.97 10.267-.263l-4.877-13.085z" fill="#262626"/></svg>