<svg width="637" height="654" viewBox="0 0 637 654" fill="none" xmlns="http://www.w3.org/2000/svg"><rect x="38" y="122" width="278" height="278" rx="5" stroke="#262626" stroke-width="10"/><rect x="225" y="355" width="294" height="294" rx="5" stroke="#262626" stroke-width="10"/><path d="M286.692 534.141c103.059 0 186.605-13.101 186.605-29.263 0-16.161-83.546-29.263-186.605-29.263-103.058 0-186.604 13.102-186.604 29.263 0 16.162 83.546 29.263 186.604 29.263z" fill="url(#paint0_radial)"/><path d="M189.821 525.82c-9.21-10.699-1.016-28.475 7.923-51.533 9.819-25.36 24.988-68.462 24.988-68.462l107.704-22.245s114.747-2.201 125.277 19.74c8.532 17.572-67.04 44.016-77.875 44.964l-66.329 3.488-6.975 3.385-46.589 58.948-68.124 11.715z" fill="#263238"/><path d="M388.266 421.298a271.268 271.268 0 00-23.328 27.087c-19.401 27.087-50.111 76.284-50.111 76.284s4.774 15.575 19.435 14.897c0 0 100.899-94.228 109.16-102.93 12.494-13.205 22.516-34.976.915-36.77-21.602-1.795-47.674 12.358-56.071 21.432z" fill="#263238"/><path d="M364.395 448.927s18.013-26.342 36.669-37.245c0 0-18.554 3.657-46.657 37.854l9.988-.609z" fill="#BA68C8"/><path opacity=".1" d="M364.395 448.927s18.013-26.342 36.669-37.245c0 0-18.554 3.657-46.657 37.854l9.988-.609z" fill="#000"/><path d="M376.652 482.244l-7.076 1.354 6.569 24.277s6.365-.61 8.566-.474a36.129 36.129 0 009.175-3.556l-1.693-14.83-7.787-8.126-7.754 1.355z" fill="#FFA8A7"/><path d="M432.52 487.966a26.484 26.484 0 0114.83 15.101 75.827 75.827 0 013.691 10.97c1.117 3.928.575 10.598-4.402 11.681a8.225 8.225 0 01-4.706-.846c-9.988-3.86-19.74-8.33-29.965-11.58a99.485 99.485 0 00-27.256-5.925 18.858 18.858 0 00-.813-21.704 13.145 13.145 0 00-7.246-3.386c2.574-1.151 4.978-2.64 7.449-4.029a22.583 22.583 0 0115.812-3.893c4.266.914 7.517 4.3 11.14 6.771 6.907 4.504 13.577 4.199 21.466 6.84z" fill="#FCF6BD"/><path d="M204.347 502.559c8.904-2.743 23.125-5.181 65.313-7.348 42.188-2.166 99.917-11.647 99.917-11.647 9.819 9.447 6.568 24.277 6.568 24.277s-74.929 23.701-99.341 26.85c-38.87 5.011-52.278 4.638-69.817.88-19.705-4.232-32.131-23.972-2.64-33.012z" fill="#263238"/><path d="M358.539 301.608l31.692 75.742-22.685 13.949-43.61-73.845 34.603-15.846z" fill="#F28F8F"/><path d="M292.989 230.234c17.335.203 36.398 6.5 42.966 20.078l27.087 55.867s-15.304 22.414-39.615 20.823l-30.438-96.768z" fill="#4F4789"/><path d="M177.733 347.96c.203-2.945 4.435-17.335 8.973-32.843l32.91 11.377-8.837 27.866-27.73 26.308a43.606 43.606 0 01-5.316-32.708z" fill="#FFA8A7"/><path d="M257.539 231.283c-20.654 4.977-48.79 11.444-56.95 33.859-8.16 22.414-19.841 61.995-19.841 61.995 4.537 7.855 29.423 14.356 38.057 9.819l4.063-13.543v82.344c16.15 17.573 95.82 13.069 107.704-22.245V271.338c0-17.945-9.954-39.513-37.481-41.104l-35.552 1.049z" fill="#4F4789"/><path d="M222.766 323.48l10.361-32.605-10.361 47.198V323.48z" fill="#E0E0E0"/><path d="M249.682 139.492a12.284 12.284 0 00-10.157 3.386c-4.368 4.47-3.386 12.731 0 31.692l13.543 1.524-3.386-36.602zm78.587-5.485c2.9.013 5.77-.575 8.431-1.726 4.131-2.371 5.214 2.336 2.946 6.399a19.266 19.266 0 01-15.643 10.428c0-.575-3.86-10.53-3.86-10.53l8.126-4.571z" fill="#263238"/><path d="M256.013 176.297c-1.997 1.185-4.875-2.641-7.347-5.248a8.666 8.666 0 00-14.525 2.37c-4.097 8.634 5.214 20.112 10.665 23.904a9.578 9.578 0 0011.207.948l1.423 33.013a35.179 35.179 0 0026.545 20.145c19.367 2.608 15.372-13.374 9.006-21.195v-12.088a46.446 46.446 0 0014.762.745c2.506-.677 8.533-7.957 12.427-16.116 4.367-9.142 11.647-25.394 5.18-52.922-6.975-29.524-38.7-30.472-57.56-18.52-18.859 11.952-11.783 44.964-11.783 44.964z" fill="#FFA8A7"/><path d="M256.014 179.649c-1.016 0-4.842-6.332-7.347-8.6-3.386-3.149 1.016-31.556 1.016-31.556s-3.386-10.801 3.385-17.945c6.772-7.145 20.045-5.96 29.728-6.298a87.016 87.016 0 0034.536-6.941c13.747-5.959 14.763-6.772 16.455-.643 1.693 6.128 2.371 19.841-5.823 29.084l-4.469 7.28s-4.165 3.386-16.93 5.079c-12.765 1.693-34.637-5.316-37.244-5.689-3.725-.508-4.504 3.081-6.501 12.9-1.896 8.634-3.42 23.261-6.806 23.329z" fill="#263238"/><path d="M249.717 141.693l-12.122-6.501a6.773 6.773 0 019.176-3.013 7.247 7.247 0 012.946 9.514z" fill="#263238"/><path d="M292.953 218.146s-17.945-3.622-24.209-6.771a20.758 20.758 0 01-8.667-8.6 28.444 28.444 0 004.943 10.157c4.571 5.858 27.933 10.158 27.933 10.158v-4.944z" fill="#F28F8F"/><path d="M293.53 175.62a3.588 3.588 0 11-3.589-3.724c.48.008.954.112 1.394.304a3.644 3.644 0 011.943 2.015c.175.447.261.925.252 1.405zm-3.793-13.544l-7.72 4.233a4.676 4.676 0 011.795-6.129 4.306 4.306 0 014.874.526c.439.381.797.847 1.051 1.37z" fill="#263238"/><path d="M291.397 199.66l8.228 3.115a4.353 4.353 0 01-2.222 2.533 4.341 4.341 0 01-3.365.176 4.604 4.604 0 01-2.641-5.824z" fill="#F28F8F"/><path d="M325.594 165.056l-7.009-5.417a4.256 4.256 0 012.852-1.759 4.276 4.276 0 013.243.844 4.641 4.641 0 01.914 6.332zm-2.168 9.548a3.584 3.584 0 01-2.306 3.218 3.594 3.594 0 01-3.864-.863 3.586 3.586 0 01-.72-3.893 3.59 3.59 0 013.301-2.186 3.662 3.662 0 012.566 1.118 3.644 3.644 0 011.023 2.606z" fill="#263238"/><path d="M306.497 174.164l-3.386 21.398 11.851-1.388-8.465-20.01z" fill="#F28F8F"/><path d="M210.78 354.292s21.974 84.646 31.251 90.707c9.277 6.061 26.545 10.496 34.807 13.544 8.261 3.047 12.02 7.212 10.598 8.363-1.423 1.151-13.341 2.404-17.471 3.86-4.131 1.455 1.218 8.126 10.36 15.202 9.142 7.077 16.93 6.433 15.914 11.14-1.016 4.706-21.399 9.412-38.599-.678-17.2-10.089-22.414-23.701-32.674-35.246-10.259-11.546-33.689-59.524-41.917-80.516 0 0 .779-39.006 13.544-36.534 12.764 2.472 14.187 10.158 14.187 10.158z" fill="#FFA8A7"/><path d="M315.335 525.82c1.557 3.759 6.941 14.119 18.927 13.544l29.457-27.561-48.384 14.017zm17.776 16.828z" fill="#263238"/><path d="M324.24 574.305a67.7 67.7 0 014.3-26.003 10.771 10.771 0 01-9.853 1.287c-9.853-2.946-12.325-16.693-10.767-19.672-1.422 1.252-2.912 2.438-4.368 3.656a22.45 22.45 0 00-9.311 13.375c-.677 4.3 1.32 8.532 2.302 12.798 1.896 8.126 0 16.591-.305 24.92a26.59 26.59 0 008.77 19.232 72.152 72.152 0 008.939 7.415 8.398 8.398 0 0014.66-5.993c-1.286-10.564-3.758-20.011-4.367-31.015z" fill="#FCF6BD"/><path d="M335.414 537.603a67.918 67.918 0 00-2.438 5.045 100.379 100.379 0 002.438-5.045zm-27.562-7.686l.643-.576-.643.576z" fill="#37474F"/><path d="M281.974 483.972V367.703a12.497 12.497 0 011.991-6.197l72.117-100.737a11.376 11.376 0 015.264-4.039 11.34 11.34 0 016.614-.412l67.817 16.171a28.454 28.454 0 016.28 2.511l3.333 1.929a6.572 6.572 0 012.082 2.216c.512.892.808 1.892.865 2.919v116.269a6.601 6.601 0 01-2.947 5.136l-151.22 87.567a6.53 6.53 0 01-5.905 0l-3.333-1.929a6.578 6.578 0 01-2.958-5.135z" fill="#201335"/><path d="M295.463 311.645v148.433c0 1.884 1.336 2.66 2.968 1.713l142.442-82.209a6.54 6.54 0 002.968-5.138V226.011c0-1.896-1.324-2.661-2.968-1.713l-142.442 82.209a6.56 6.56 0 00-2.968 5.138z" fill="#FAFAFA"/><path d="M297.026 462.838a2.1 2.1 0 01-1.051-.274 2.597 2.597 0 01-1.142-2.411V311.664a7.115 7.115 0 013.255-5.643l142.537-82.24a2.366 2.366 0 013.631.822c.205.434.273.92.196 1.394v148.489a7.098 7.098 0 01-.943 3.212 7.092 7.092 0 01-2.313 2.419l-142.537 82.241a3.262 3.262 0 01-1.633.48zm145.187-238.475a2.195 2.195 0 00-1.04.331l-142.537 82.298a6.038 6.038 0 00-2.684 4.649v148.49a1.264 1.264 0 00.594 1.411 1.264 1.264 0 001.519-.189l142.537-82.241a6.019 6.019 0 002.684-4.649V225.974a1.58 1.58 0 00-.582-1.428.982.982 0 00-.491-.183z" fill="#E0E0E0"/><path d="M448.336 282.038v116.105a6.032 6.032 0 01-.923 2.997 6.335 6.335 0 01-1.732 1.937l-.114.069-.193.125-151.455 87.443a2.1 2.1 0 01-2.017.228 2.05 2.05 0 01-.74-.842 2.05 2.05 0 01-.183-1.107V372.9a2.579 2.579 0 012.099-2.691 2.56 2.56 0 011.229.07l63.654 15.145 8.341 1.983a5.485 5.485 0 005.333-1.994l9.663-13.459 65.044-90.566c1.094-1.504 1.994-1.242 1.994.65z" fill="#201335"/><path d="M445.396 403.572l.193-.126.113-.068a6.332 6.332 0 001.726-1.938 6.08 6.08 0 00.909-2.952l-66.802-26.218 44.735 42.393 19.126-11.091zM290.989 489.63a2.037 2.037 0 00.929 1.954 2.128 2.128 0 002.03-.228l52.478-30.187 11.984-75.411-67.444 101.918.023 1.954z" fill="#4F4789"/><path d="M447.693 401.058a6.339 6.339 0 01-1.731 1.939l-.114.068-151.582 87.649a2.105 2.105 0 01-2.016.228l72.488-115.891a11.378 11.378 0 0114.249-4.381l68.706 30.388z" fill="#201335"/><path d="M358.112 345.836a8.413 8.413 0 01-3.992-.352 8.363 8.363 0 01-3.368-2.158c-1.745-1.928-2.617-4.905-2.617-8.91a31.523 31.523 0 012.858-13.097 39.598 39.598 0 017.877-11.409 54.468 54.468 0 0111.94-9.286c4.31-2.465 7.988-3.83 11.034-4.096 3.066-.274 5.373.513 6.958 2.339 1.584 1.825 2.365 4.62 2.365 8.362a21.75 21.75 0 01-2.572 10.656 17.83 17.83 0 01-6.797 7.142 5.032 5.032 0 01-3.444.89 2.285 2.285 0 01-1.791-1.723 20.896 20.896 0 01-3.606 4.894 22.292 22.292 0 01-4.914 3.799c-3.123 1.757-5.614 2.282-7.451 1.677-1.837-.604-2.71-2.452-2.71-5.533a19.168 19.168 0 013.445-10.827 27.598 27.598 0 019.369-8.533 17.531 17.531 0 015.04-2.008 7.737 7.737 0 014.03 0v12.013c0 .97.172 1.563.505 1.791.333.228.884.114 1.665-.331a7.379 7.379 0 003.043-4.004 19.637 19.637 0 001.09-6.925c0-2.997-.658-5.176-1.975-6.537a6.153 6.153 0 00-2.502-1.476 6.198 6.198 0 00-2.905-.167 20.74 20.74 0 00-7.888 2.92 38.526 38.526 0 00-12.802 11.409 25.992 25.992 0 00-4.707 15.071c0 3.278.677 5.67 2.032 7.176a6.278 6.278 0 002.559 1.658 6.318 6.318 0 003.044.259 20.518 20.518 0 008.037-2.932 32.848 32.848 0 004.765-3.332 25.277 25.277 0 003.754-3.81c.115-.147.251-.278.402-.388.103-.057.207 0 .298.137l1.263 2.282c.047.09.081.186.104.285-.04.254-.166.487-.356.662a35.36 35.36 0 01-4.593 4.563 40.454 40.454 0 01-5.614 3.925 27.245 27.245 0 01-10.873 3.924zm14.926-21.448a7.621 7.621 0 001.814-4.564v-6.959a9.956 9.956 0 00-4.593 1.574 15.803 15.803 0 00-5.442 5.032c-1.301 1.91-2 4.162-2.009 6.468 0 1.929.482 3.081 1.458 3.423.976.342 2.48 0 4.535-1.221a14.457 14.457 0 004.283-3.753h-.046z" fill="#E0E0E0"/><defs><radialGradient id="paint0_radial" cx="0" cy="0" r="1" gradientUnits="userSpaceOnUse" gradientTransform="matrix(0 29.263 -186.605 0 286.692 504.878)"><stop stop-color="#201335" stop-opacity=".56"/><stop offset="1" stop-color="#201335" stop-opacity="0"/></radialGradient></defs></svg>