<svg width="26" height="22" viewBox="0 0 26 22" fill="none" xmlns="http://www.w3.org/2000/svg"><path d="M7.074 18.9c1.657.264 3.053-.19 4.19-1.374.556-.58 1.017-1.336 1.384-2.23l-.852-1.223c-.32 1.033-.734 1.84-1.266 2.432-.864.958-1.965 1.323-3.29 1.122-1.231-.202-2.142-1.009-2.758-2.445-.615-1.45-.745-3.415-.39-5.898.236-1.65.65-3.163 1.242-4.524l-.793-1.146c-.059.113-.106.227-.165.34-.71 1.55-1.207 3.264-1.468 5.141-.402 2.823-.19 5.104.627 6.83.817 1.74 1.989 2.722 3.54 2.974z" fill="#FF7096"/><path d="M7.59 16.225c1.632.264 2.708-.876 3.252-3.42L9.92 11.46l-.023.12c-.188 1.369-.443 2.305-.776 2.82-.322.505-.788.72-1.376.625-.51-.084-.865-.54-1.076-1.38-.211-.84-.2-2.1.033-3.78.122-.877.288-1.669.488-2.389l-.788-1.152a16.081 16.081 0 00-.81 3.372c-.277 2.029-.221 3.6.178 4.705.388 1.08.999 1.692 1.82 1.824zm4.102-10.736c.467-1.086 1.067-1.967 1.798-2.655 1.414-1.304 3.128-1.81 5.154-1.51 1.917.29 3.38 1.401 4.399 3.332 1.018 1.931 1.294 4.417.838 7.459-.3 1.967-.85 3.778-1.666 5.42a13.54 13.54 0 01-.743 1.303l.755 1.038c.348-.507.672-1.038.971-1.618.935-1.798 1.558-3.777 1.882-5.962.252-1.726.288-3.32.084-4.792-.216-1.472-.611-2.715-1.199-3.729a7.718 7.718 0 00-2.205-2.474A6.76 6.76 0 0018.811.106c-2.373-.362-4.386.205-6.052 1.69-.768.676-1.403 1.52-1.918 2.546l.85 1.147z" fill="#FF7096"/><path d="M15.677 10.216c.214-1.397.504-2.354.882-2.881.378-.528.894-.736 1.562-.638.58.086.983.552 1.222 1.41.24.859.227 2.146-.038 3.863-.189 1.19-.453 2.244-.793 3.152l.869 1.14c.025-.049.038-.086.063-.135.529-1.201.907-2.526 1.134-3.985.314-2.073.264-3.667-.177-4.783-.453-1.128-1.146-1.766-2.091-1.9-2.016-.295-3.3 1.14-3.855 4.316l1.07 1.422.152-.98zm-2.055 6.466a7.778 7.778 0 01-1.543 2.098c-1.445 1.341-3.197 1.863-5.266 1.552-1.96-.298-3.454-1.44-4.495-3.427C1.277 14.92.995 12.361 1.46 9.232c.307-2.024.87-3.886 1.715-5.575.135-.26.257-.509.404-.757l-.796-1.093c-.22.348-.429.72-.624 1.105C1.19 4.762.542 6.798.21 9.033c-.257 1.776-.282 3.415-.061 4.93.208 1.514.612 2.793 1.225 3.849.6 1.043 1.335 1.887 2.241 2.533a6.883 6.883 0 003.013 1.229c2.425.372 4.495-.211 6.21-1.738a8.16 8.16 0 001.616-2.012l-.833-1.142z" fill="#FF7096"/><path d="M18.656 4.015c1.31.194 2.28.982 2.935 2.363.655 1.38.794 3.259.416 5.646-.252 1.623-.706 3.1-1.36 4.434a12.4 12.4 0 01-.278.533l.832 1.078c.176-.29.34-.582.503-.897.769-1.502 1.285-3.15 1.575-4.967.428-2.714.201-4.906-.655-6.566-.87-1.66-2.129-2.617-3.779-2.86-1.763-.254-3.25.194-4.446 1.333-.743.69-1.322 1.636-1.75 2.799l.944 1.223c.353-1.344.882-2.362 1.575-3.053.906-.908 2.078-1.272 3.488-1.066z" fill="#FF7096"/></svg>